<?xml version="1.0" encoding="utf-8"?>
<svg version="1.1" id="Layer_1" xmlns="http://www.w3.org/2000/svg" xmlns:xlink="http://www.w3.org/1999/xlink" x="0px" y="0px"
	 viewBox="0 0 436.6 180.9" style="enable-background:new 0 0 436.6 180.9;" xml:space="preserve">
<style type="text/css">
	.st0{fill:#00BB88;}
	.st1{fill:#FFFFFF;}
</style>
<g>
	<rect x="4" y="58.5" class="st1" width="30.8" height="119"/>
	<path class="st1" d="M313.5,55.3c-36.1,0-63.3,27-63.3,62.8s27.2,62.8,63.3,62.8c36.1,0,63.3-27,63.3-62.8S349.6,55.3,313.5,55.3z
		 M346.9,118.1c0,19.1-14.4,33.4-33.4,33.4c-19.1,0-33.4-14.4-33.4-33.4c0-19.1,14.4-33.4,33.4-33.4
		C332.6,84.7,346.9,99,346.9,118.1z"/>
	<path class="st1" d="M417.2,140.7c-10.7,0-19.4,8.7-19.4,19.4c0,10.7,8.7,19.4,19.4,19.4c10.7,0,19.4-8.7,19.4-19.4
		C436.6,149.4,427.9,140.7,417.2,140.7z"/>
	<rect x="188.9" y="58.5" class="st1" width="30.8" height="119"/>
	<path class="st1" d="M118.1,105.5c-11.3-3.7-21.1-6.8-21.1-14.1c0-5.5,5-8.5,13.1-8.6c14.1-0.1,26,9.4,26,9.4L152.6,70
		c-12.7-8.9-30.1-13.7-43.6-13.7c-26.5,0-43.6,13.7-43.6,34.8c0,25,20.5,31.7,37,37.1c11.4,3.7,21.8,7.6,21.8,15.7
		c0,6.6-5.8,9.2-16.8,9.1c-8.9-0.1-20.4-4.8-30.8-11.8L61,163.8c14.4,9.8,31.2,16.9,48.4,16.9c28.3,0,47.3-15.3,47.3-38
		C156.7,118,135.3,111.1,118.1,105.5z"/>
	<path class="st1" d="M204.3,0c-10.7,0-19.4,8.7-19.4,19.4c0,10.7,8.7,19.4,19.4,19.4c10.7,0,19.4-8.7,19.4-19.4
		C223.7,8.7,215,0,204.3,0z"/>
	<path class="st1" d="M19.4,0C8.7,0,0,8.7,0,19.4c0,10.7,8.7,19.4,19.4,19.4s19.4-8.7,19.4-19.4C38.8,8.7,30.1,0,19.4,0z"/>
</g>
</svg>
